<mxfile host="app.diagrams.net" modified="2024-04-22T08:03:05.745Z" agent="Mozilla/5.0 (Windows NT 10.0; Win64; x64) AppleWebKit/537.36 (KHTML, like Gecko) Chrome/123.0.0.0 Safari/537.36" version="24.2.5" etag="DCvH-5gHP9JjAgD5iABl" type="github">
  <diagram name="Sayfa -1" id="_JxoeHpTZrzS4dJX85LN">
    <mxGraphModel>
      <root>
        <mxCell id="0" />
        <mxCell id="1" parent="0" />
      </root>
    </mxGraphModel>
  </diagram>
</mxfile>
